<svg width="33" height="32" viewBox="0 0 33 32" fill="none" xmlns="http://www.w3.org/2000/svg">
<path d="M16.5 8.67494C12.4465 8.67494 9.17503 11.9464 9.17503 15.9999C9.17503 20.0535 12.4465 23.3249 16.5 23.3249C20.5536 23.3249 23.825 20.0535 23.825 15.9999C23.825 11.9464 20.5536 8.67494 16.5 8.67494ZM16.5 20.7607C13.8786 20.7607 11.7393 18.6214 11.7393 15.9999C11.7393 13.3785 13.8786 11.2392 16.5 11.2392C19.1215 11.2392 21.2607 13.3785 21.2607 15.9999C21.2607 18.6214 19.1215 20.7607 16.5 20.7607ZM24.125 6.6678C23.1786 6.6678 22.4143 7.43208 22.4143 8.37851C22.4143 9.32494 23.1786 10.0892 24.125 10.0892C25.0715 10.0892 25.8357 9.32851 25.8357 8.37851C25.836 8.15378 25.792 7.9312 25.7061 7.72352C25.6202 7.51583 25.4942 7.32713 25.3353 7.16822C25.1764 7.00931 24.9877 6.88331 24.78 6.79744C24.5723 6.71157 24.3498 6.66751 24.125 6.6678ZM30.7786 15.9999C30.7786 14.0285 30.7965 12.0749 30.6857 10.1071C30.575 7.82137 30.0536 5.7928 28.3822 4.12137C26.7072 2.44637 24.6822 1.92851 22.3965 1.8178C20.425 1.70708 18.4715 1.72494 16.5036 1.72494C14.5322 1.72494 12.5786 1.70708 10.6107 1.8178C8.32503 1.92851 6.29646 2.44994 4.62503 4.12137C2.95003 5.79637 2.43217 7.82137 2.32146 10.1071C2.21074 12.0785 2.2286 14.0321 2.2286 15.9999C2.2286 17.9678 2.21074 19.9249 2.32146 21.8928C2.43217 24.1785 2.9536 26.2071 4.62503 27.8785C6.30003 29.5535 8.32503 30.0714 10.6107 30.1821C12.5822 30.2928 14.5357 30.2749 16.5036 30.2749C18.475 30.2749 20.4286 30.2928 22.3965 30.1821C24.6822 30.0714 26.7107 29.5499 28.3822 27.8785C30.0572 26.2035 30.575 24.1785 30.6857 21.8928C30.8 19.9249 30.7786 17.9714 30.7786 15.9999ZM27.6357 24.4214C27.375 25.0714 27.0607 25.5571 26.5572 26.0571C26.0536 26.5607 25.5715 26.8749 24.9215 27.1357C23.0429 27.8821 18.5822 27.7142 16.5 27.7142C14.4179 27.7142 9.9536 27.8821 8.07503 27.1392C7.42503 26.8785 6.93932 26.5642 6.43932 26.0607C5.93574 25.5571 5.62146 25.0749 5.36074 24.4249C4.61789 22.5428 4.78574 18.0821 4.78574 15.9999C4.78574 13.9178 4.61789 9.45351 5.36074 7.57494C5.62146 6.92494 5.93574 6.43923 6.43932 5.93923C6.94289 5.43923 7.42503 5.12137 8.07503 4.86065C9.9536 4.1178 14.4179 4.28565 16.5 4.28565C18.5822 4.28565 23.0465 4.1178 24.925 4.86065C25.575 5.12137 26.0607 5.43565 26.5607 5.93923C27.0643 6.4428 27.3786 6.92494 27.6393 7.57494C28.3822 9.45351 28.2143 13.9178 28.2143 15.9999C28.2143 18.0821 28.3822 22.5428 27.6357 24.4214Z" fill="white"/>
</svg>
