<svg width="33" height="32" viewBox="0 0 33 32" fill="none" xmlns="http://www.w3.org/2000/svg">
<path d="M29.6429 1.71423H3.35721C2.72507 1.71423 2.21436 2.22495 2.21436 2.85709V29.1428C2.21436 29.7749 2.72507 30.2857 3.35721 30.2857H29.6429C30.2751 30.2857 30.7858 29.7749 30.7858 29.1428V2.85709C30.7858 2.22495 30.2751 1.71423 29.6429 1.71423ZM10.6894 26.0607H6.45007V12.4249H10.6894V26.0607ZM8.5715 10.5607C8.08552 10.5607 7.61046 10.4166 7.20638 10.1466C6.80231 9.87656 6.48737 9.49281 6.30139 9.04383C6.11542 8.59484 6.06676 8.10079 6.16157 7.62415C6.25638 7.14752 6.4904 6.70969 6.83404 6.36606C7.17767 6.02242 7.61549 5.7884 8.09213 5.69359C8.56877 5.59878 9.06282 5.64744 9.51181 5.83342C9.96079 6.01939 10.3445 6.33433 10.6145 6.7384C10.8845 7.14248 11.0286 7.61754 11.0286 8.10352C11.0251 9.46066 9.92507 10.5607 8.5715 10.5607ZM26.5608 26.0607H22.3251V19.4285C22.3251 17.8464 22.2965 15.8142 20.1215 15.8142C17.9179 15.8142 17.5786 17.5357 17.5786 19.3142V26.0607H13.3465V12.4249H17.4108V14.2892H17.4679C18.0322 13.2178 19.4144 12.0857 21.4786 12.0857C25.7715 12.0857 26.5608 14.9107 26.5608 18.5821V26.0607Z" fill="white"/>
</svg>
