<svg width="33" height="32" viewBox="0 0 33 32" fill="none" xmlns="http://www.w3.org/2000/svg">
<g clip-path="url(#clip0_402_1289)">
<path d="M23.6963 19.1393C23.307 18.9393 21.3677 17.9893 21.007 17.8607C20.6463 17.725 20.382 17.6607 20.1213 18.0607C19.857 18.4571 19.107 19.3393 18.8713 19.6071C18.6427 19.8714 18.4106 19.9036 18.0213 19.7071C15.707 18.55 14.1891 17.6428 12.6641 15.025C12.2606 14.3286 13.0677 14.3786 13.8213 12.875C13.9498 12.6107 13.8856 12.3857 13.7856 12.1857C13.6856 11.9857 12.8998 10.05 12.5713 9.2607C12.2534 8.49284 11.9248 8.59998 11.6856 8.5857C11.457 8.57141 11.1963 8.57141 10.932 8.57141C10.6677 8.57141 10.2427 8.67141 9.88199 9.0607C9.52128 9.45713 8.50342 10.4107 8.50342 12.3464C8.50342 14.2821 9.91413 16.1571 10.107 16.4214C10.307 16.6857 12.882 20.6571 16.8356 22.3678C19.3356 23.4464 20.3141 23.5393 21.5641 23.3536C22.3248 23.2393 23.8927 22.4036 24.2177 21.4786C24.5427 20.5571 24.5427 19.7678 24.4463 19.6036C24.3498 19.4286 24.0856 19.3286 23.6963 19.1393Z" fill="white"/>
<path d="M31.2574 9.8C30.4502 7.88214 29.2931 6.16071 27.8181 4.68214C26.3534 3.21213 24.6146 2.04365 22.7002 1.24286C20.7359 0.417857 18.6502 0 16.5002 0H16.4288C14.2645 0.0107143 12.1681 0.439286 10.1966 1.28214C8.29862 2.09115 6.57614 3.2617 5.1252 4.72857C3.66449 6.20357 2.51806 7.91786 1.7252 9.82857C0.903774 11.8071 0.489488 13.9107 0.500203 16.075C0.512321 18.5553 1.0991 20.999 2.21449 23.2143V28.6429C2.21449 29.0786 2.38757 29.4964 2.69567 29.8045C3.00377 30.1126 3.42163 30.2857 3.85735 30.2857H9.28949C11.5048 31.4011 13.9485 31.9879 16.4288 32H16.5038C18.6431 32 20.7181 31.5857 22.6716 30.775C24.5764 29.9838 26.3087 28.8289 27.7716 27.375C29.2466 25.9143 30.4073 24.2071 31.2181 22.3036C32.0609 20.3321 32.4895 18.2357 32.5002 16.0714C32.5109 13.8964 32.0895 11.7857 31.2574 9.8ZM25.8609 25.4429C23.3573 27.9214 20.0359 29.2857 16.5002 29.2857H16.4395C14.2859 29.275 12.1466 28.7393 10.2573 27.7321L9.95735 27.5714H4.92877V22.5429L4.76806 22.2429C3.76092 20.3536 3.2252 18.2143 3.21449 16.0607C3.2002 12.5 4.56092 9.15714 7.05735 6.63929C9.5502 4.12143 12.8823 2.72857 16.4431 2.71429H16.5038C18.2895 2.71429 20.0216 3.06071 21.6538 3.74643C23.2466 4.41429 24.6752 5.375 25.9038 6.60357C27.1288 7.82857 28.0931 9.26071 28.7609 10.8536C29.4538 12.5036 29.8002 14.2536 29.7931 16.0607C29.7716 19.6179 28.3752 22.95 25.8609 25.4429Z" fill="white"/>
</g>
<defs>
<clipPath id="clip0_402_1289">
<rect width="32" height="32" fill="white" transform="translate(0.5)"/>
</clipPath>
</defs>
</svg>
